%TF.GenerationSoftware,KiCad,Pcbnew,9.0.1*%
%TF.CreationDate,2025-06-20T23:10:46-05:00*%
%TF.ProjectId,LVGL_Training_Board,4c56474c-5f54-4726-9169-6e696e675f42,rev?*%
%TF.SameCoordinates,Original*%
%TF.FileFunction,Copper,L1,Top*%
%TF.FilePolarity,Positive*%
%FSLAX46Y46*%
G04 Gerber Fmt 4.6, Leading zero omitted, Abs format (unit mm)*
G04 Created by KiCad (PCBNEW 9.0.1) date 2025-06-20 23:10:46*
%MOMM*%
%LPD*%
G01*
G04 APERTURE LIST*
G04 Aperture macros list*
%AMRoundRect*
0 Rectangle with rounded corners*
0 $1 Rounding radius*
0 $2 $3 $4 $5 $6 $7 $8 $9 X,Y pos of 4 corners*
0 Add a 4 corners polygon primitive as box body*
4,1,4,$2,$3,$4,$5,$6,$7,$8,$9,$2,$3,0*
0 Add four circle primitives for the rounded corners*
1,1,$1+$1,$2,$3*
1,1,$1+$1,$4,$5*
1,1,$1+$1,$6,$7*
1,1,$1+$1,$8,$9*
0 Add four rect primitives between the rounded corners*
20,1,$1+$1,$2,$3,$4,$5,0*
20,1,$1+$1,$4,$5,$6,$7,0*
20,1,$1+$1,$6,$7,$8,$9,0*
20,1,$1+$1,$8,$9,$2,$3,0*%
G04 Aperture macros list end*
%TA.AperFunction,SMDPad,CuDef*%
%ADD10RoundRect,0.243750X-0.243750X-0.456250X0.243750X-0.456250X0.243750X0.456250X-0.243750X0.456250X0*%
%TD*%
%TA.AperFunction,SMDPad,CuDef*%
%ADD11RoundRect,0.250000X-0.350000X-0.450000X0.350000X-0.450000X0.350000X0.450000X-0.350000X0.450000X0*%
%TD*%
%TA.AperFunction,SMDPad,CuDef*%
%ADD12R,1.000000X1.400000*%
%TD*%
%TA.AperFunction,SMDPad,CuDef*%
%ADD13RoundRect,0.056250X-0.168750X0.188750X-0.168750X-0.188750X0.168750X-0.188750X0.168750X0.188750X0*%
%TD*%
%TA.AperFunction,SMDPad,CuDef*%
%ADD14RoundRect,0.250000X-0.450000X0.350000X-0.450000X-0.350000X0.450000X-0.350000X0.450000X0.350000X0*%
%TD*%
%TA.AperFunction,SMDPad,CuDef*%
%ADD15RoundRect,0.250000X-0.337500X-0.475000X0.337500X-0.475000X0.337500X0.475000X-0.337500X0.475000X0*%
%TD*%
%TA.AperFunction,SMDPad,CuDef*%
%ADD16R,1.300000X2.000000*%
%TD*%
%TA.AperFunction,SMDPad,CuDef*%
%ADD17R,2.000000X2.000000*%
%TD*%
%TA.AperFunction,SMDPad,CuDef*%
%ADD18R,1.600000X1.400000*%
%TD*%
%TA.AperFunction,SMDPad,CuDef*%
%ADD19RoundRect,0.250000X0.350000X0.450000X-0.350000X0.450000X-0.350000X-0.450000X0.350000X-0.450000X0*%
%TD*%
%TA.AperFunction,SMDPad,CuDef*%
%ADD20R,2.150000X0.950000*%
%TD*%
%TA.AperFunction,SMDPad,CuDef*%
%ADD21R,2.150000X3.250000*%
%TD*%
%TA.AperFunction,SMDPad,CuDef*%
%ADD22RoundRect,0.250000X0.450000X-0.350000X0.450000X0.350000X-0.450000X0.350000X-0.450000X-0.350000X0*%
%TD*%
%TA.AperFunction,ComponentPad*%
%ADD23C,5.000000*%
%TD*%
%TA.AperFunction,SMDPad,CuDef*%
%ADD24R,1.400000X1.600000*%
%TD*%
%TA.AperFunction,SMDPad,CuDef*%
%ADD25RoundRect,0.250000X-0.475000X0.337500X-0.475000X-0.337500X0.475000X-0.337500X0.475000X0.337500X0*%
%TD*%
%TA.AperFunction,ComponentPad*%
%ADD26R,1.700000X1.700000*%
%TD*%
%TA.AperFunction,ComponentPad*%
%ADD27C,1.700000*%
%TD*%
%TA.AperFunction,SMDPad,CuDef*%
%ADD28RoundRect,0.250000X0.445000X-0.545000X0.445000X0.545000X-0.445000X0.545000X-0.445000X-0.545000X0*%
%TD*%
%TA.AperFunction,SMDPad,CuDef*%
%ADD29RoundRect,0.243750X0.243750X0.456250X-0.243750X0.456250X-0.243750X-0.456250X0.243750X-0.456250X0*%
%TD*%
%TA.AperFunction,SMDPad,CuDef*%
%ADD30RoundRect,0.150000X-0.512500X-0.150000X0.512500X-0.150000X0.512500X0.150000X-0.512500X0.150000X0*%
%TD*%
%TA.AperFunction,SMDPad,CuDef*%
%ADD31R,1.150000X0.600000*%
%TD*%
%TA.AperFunction,SMDPad,CuDef*%
%ADD32R,1.150000X0.300000*%
%TD*%
%TA.AperFunction,ComponentPad*%
%ADD33O,2.100000X1.000000*%
%TD*%
%TA.AperFunction,ComponentPad*%
%ADD34O,1.800000X1.000000*%
%TD*%
%TA.AperFunction,SMDPad,CuDef*%
%ADD35RoundRect,0.250000X0.337500X0.475000X-0.337500X0.475000X-0.337500X-0.475000X0.337500X-0.475000X0*%
%TD*%
%TA.AperFunction,SMDPad,CuDef*%
%ADD36R,1.500000X0.900000*%
%TD*%
%TA.AperFunction,SMDPad,CuDef*%
%ADD37R,0.900000X1.500000*%
%TD*%
%TA.AperFunction,HeatsinkPad*%
%ADD38C,0.600000*%
%TD*%
%TA.AperFunction,HeatsinkPad*%
%ADD39R,3.900000X3.900000*%
%TD*%
%TA.AperFunction,SMDPad,CuDef*%
%ADD40RoundRect,0.250000X0.475000X-0.337500X0.475000X0.337500X-0.475000X0.337500X-0.475000X-0.337500X0*%
%TD*%
%TA.AperFunction,ViaPad*%
%ADD41C,0.600000*%
%TD*%
%TA.AperFunction,ViaPad*%
%ADD42C,0.500000*%
%TD*%
%TA.AperFunction,Conductor*%
%ADD43C,0.300000*%
%TD*%
%TA.AperFunction,Conductor*%
%ADD44C,0.500000*%
%TD*%
%TA.AperFunction,Conductor*%
%ADD45C,0.200000*%
%TD*%
G04 APERTURE END LIST*
D10*
%TO.P,LED2,2,A*%
%TO.N,Net-(LED2-A)*%
X177907500Y-132700000D03*
%TO.P,LED2,1,K*%
%TO.N,Net-(LED2-K)*%
X176032500Y-132700000D03*
%TD*%
D11*
%TO.P,R9,2*%
%TO.N,Net-(LED2-A)*%
X177950000Y-136800000D03*
%TO.P,R9,1*%
%TO.N,+3.3V*%
X175950000Y-136800000D03*
%TD*%
D12*
%TO.P,U6,1*%
%TO.N,/LED1*%
X177900000Y-125350000D03*
%TO.P,U6,2*%
%TO.N,GND*%
X176000000Y-125350000D03*
%TO.P,U6,3*%
%TO.N,Net-(LED2-K)*%
X176950000Y-127550000D03*
%TD*%
D13*
%TO.P,U9,3,SDI*%
%TO.N,/SDA*%
X183625000Y-114420000D03*
%TO.P,U9,2,CSB*%
%TO.N,+3.3V*%
X184275000Y-114420000D03*
%TO.P,U9,1,GND*%
%TO.N,GND*%
X184925000Y-114420000D03*
%TO.P,U9,4,SCK*%
%TO.N,/SCL*%
X182975000Y-114420000D03*
%TO.P,U9,6,VDDIO*%
%TO.N,+3.3V*%
X183625000Y-112480000D03*
%TO.P,U9,7,GND*%
%TO.N,GND*%
X184275000Y-112480000D03*
%TO.P,U9,8,VDD*%
%TO.N,+3.3V*%
X184925000Y-112480000D03*
%TO.P,U9,5,SDO*%
%TO.N,GND*%
X182975000Y-112480000D03*
%TD*%
D14*
%TO.P,R13,1*%
%TO.N,+3.3V*%
X187675000Y-112537500D03*
%TO.P,R13,2*%
%TO.N,/SDA*%
X187675000Y-114537500D03*
%TD*%
%TO.P,R12,1*%
%TO.N,+3.3V*%
X180225000Y-112537500D03*
%TO.P,R12,2*%
%TO.N,/SCL*%
X180225000Y-114537500D03*
%TD*%
D15*
%TO.P,C8,1*%
%TO.N,+3.3V*%
X182787500Y-110170000D03*
%TO.P,C8,2*%
%TO.N,GND*%
X184862500Y-110170000D03*
%TD*%
D16*
%TO.P,VR1,C,C*%
%TO.N,+3.3V*%
X186500000Y-137050000D03*
%TO.P,VR1,A,A*%
%TO.N,GND*%
X188800000Y-137050000D03*
D17*
%TO.P,VR1,B,B*%
%TO.N,/POT1*%
X187650000Y-133050000D03*
%TD*%
D18*
%TO.P,S3,1*%
%TO.N,/SW1*%
X168000000Y-134800000D03*
%TO.P,S3,2*%
X160800000Y-134800000D03*
%TO.P,S3,3*%
%TO.N,+3.3V*%
X168000000Y-137800000D03*
%TO.P,S3,4*%
X160800000Y-137800000D03*
%TD*%
D19*
%TO.P,R6,1*%
%TO.N,GND*%
X165400000Y-131200000D03*
%TO.P,R6,2*%
%TO.N,/SW1*%
X163400000Y-131200000D03*
%TD*%
D20*
%TO.P,U1,1,GND*%
%TO.N,GND*%
X174900000Y-92700000D03*
%TO.P,U1,2,VOUT_2*%
%TO.N,+3.3V*%
X174900000Y-95000000D03*
%TO.P,U1,3,VIN*%
%TO.N,+5V*%
X174900000Y-97300000D03*
D21*
%TO.P,U1,4,VOUT_4*%
%TO.N,+3.3V*%
X180700000Y-95000000D03*
%TD*%
D22*
%TO.P,R4,1*%
%TO.N,+3.3V*%
X95400000Y-123250000D03*
%TO.P,R4,2*%
%TO.N,/EN*%
X95400000Y-121250000D03*
%TD*%
D23*
%TO.P,H3,1,1*%
%TO.N,GND*%
X90550000Y-143450000D03*
%TD*%
D24*
%TO.P,S1,1*%
%TO.N,GND*%
X92412500Y-137600000D03*
%TO.P,S1,2*%
%TO.N,/BOOT*%
X92412500Y-130400000D03*
%TO.P,S1,3*%
%TO.N,GND*%
X89412500Y-137600000D03*
%TO.P,S1,4*%
%TO.N,/BOOT*%
X89412500Y-130400000D03*
%TD*%
D25*
%TO.P,C1,1*%
%TO.N,+5V*%
X170300000Y-90962500D03*
%TO.P,C1,2*%
%TO.N,GND*%
X170300000Y-93037500D03*
%TD*%
D26*
%TO.P,U4,1,VCC*%
%TO.N,+3.3V*%
X109440000Y-142760000D03*
D27*
%TO.P,U4,2,GND*%
%TO.N,GND*%
X111980000Y-142760000D03*
%TO.P,U4,3,TFT_CS*%
%TO.N,/TFT_CS*%
X114520000Y-142760000D03*
%TO.P,U4,4,TFT_RST*%
%TO.N,/TFT_RST*%
X117060000Y-142760000D03*
%TO.P,U4,5,TFT_D/C*%
%TO.N,/TFT_DC*%
X119600000Y-142760000D03*
%TO.P,U4,6,TFT_MOSI*%
%TO.N,/MOSI*%
X122140000Y-142760000D03*
%TO.P,U4,7,TFT_SCK*%
%TO.N,/SCK*%
X124680000Y-142760000D03*
%TO.P,U4,8,LED*%
%TO.N,/TFT_LED*%
X127220000Y-142760000D03*
%TO.P,U4,9,TFT_MISO*%
%TO.N,/MISO*%
X129760000Y-142760000D03*
%TO.P,U4,10,T_CLK*%
%TO.N,/SCL*%
X132300000Y-142760000D03*
%TO.P,U4,11,T_CS*%
%TO.N,/T_CS*%
X134840000Y-142760000D03*
%TO.P,U4,12,T_DI*%
%TO.N,/SDA*%
X137380000Y-142760000D03*
%TO.P,U4,13,T_DO*%
%TO.N,GND*%
X139920000Y-142760000D03*
%TO.P,U4,14,T_IRQ*%
%TO.N,/T_IRQ*%
X142460000Y-142760000D03*
%TO.P,U4,15,SD_CS*%
%TO.N,/SD_CS*%
X122140000Y-57840000D03*
%TO.P,U4,16,SD_MOSI*%
%TO.N,/MOSI*%
X124680000Y-57840000D03*
%TO.P,U4,17,SD_MISO*%
%TO.N,/MISO*%
X127220000Y-57840000D03*
%TO.P,U4,18,SD_SCK*%
%TO.N,/SCK*%
X129760000Y-57840000D03*
%TD*%
D28*
%TO.P,C3,1*%
%TO.N,+3.3V*%
X160750000Y-67890000D03*
%TO.P,C3,2*%
%TO.N,GND*%
X160750000Y-65010000D03*
%TD*%
%TO.P,C2,1*%
%TO.N,+5V*%
X170300000Y-98840000D03*
%TO.P,C2,2*%
%TO.N,GND*%
X170300000Y-95960000D03*
%TD*%
D11*
%TO.P,R1,1*%
%TO.N,/PWD_LED*%
X92750000Y-69450000D03*
%TO.P,R1,2*%
%TO.N,GND*%
X94750000Y-69450000D03*
%TD*%
D29*
%TO.P,LED1,1,K*%
%TO.N,/PWD_LED*%
X92137500Y-64900000D03*
%TO.P,LED1,2,A*%
%TO.N,+3.3V*%
X90262500Y-64900000D03*
%TD*%
D24*
%TO.P,S2,1*%
%TO.N,GND*%
X92612500Y-123050000D03*
%TO.P,S2,2*%
%TO.N,/EN*%
X92612500Y-115850000D03*
%TO.P,S2,3*%
%TO.N,GND*%
X89612500Y-123050000D03*
%TO.P,S2,4*%
%TO.N,/EN*%
X89612500Y-115850000D03*
%TD*%
D30*
%TO.P,U3,1,I/O1*%
%TO.N,/USB_P*%
X160012500Y-81300000D03*
%TO.P,U3,2,GND*%
%TO.N,GND*%
X160012500Y-82250000D03*
%TO.P,U3,3,I/O2*%
%TO.N,/USB_N*%
X160012500Y-83200000D03*
%TO.P,U3,4,I/O2*%
%TO.N,/D-*%
X162287500Y-83200000D03*
%TO.P,U3,5,VBUS*%
%TO.N,+5V*%
X162287500Y-82250000D03*
%TO.P,U3,6,I/O1*%
%TO.N,/D+*%
X162287500Y-81300000D03*
%TD*%
D31*
%TO.P,J1,A1_B12,GND*%
%TO.N,GND*%
X94042500Y-73672500D03*
%TO.P,J1,A4_B9,VBUS*%
%TO.N,+5V*%
X94042500Y-74472500D03*
D32*
%TO.P,J1,A5,CC1*%
%TO.N,Net-(J1-CC1)*%
X94042500Y-75622500D03*
%TO.P,J1,A6,DP1*%
%TO.N,/USB_P*%
X94042500Y-76622500D03*
%TO.P,J1,A7,DN1*%
%TO.N,/USB_N*%
X94042500Y-77122500D03*
%TO.P,J1,A8,SBU1*%
%TO.N,unconnected-(J1-SBU1-PadA8)*%
X94042500Y-78122500D03*
D31*
%TO.P,J1,B1_A12,GND*%
%TO.N,GND*%
X94042500Y-80072500D03*
%TO.P,J1,B4_A9,VBUS*%
%TO.N,+5V*%
X94042500Y-79272500D03*
D32*
%TO.P,J1,B5,CC2*%
%TO.N,Net-(J1-CC2)*%
X94042500Y-78622500D03*
%TO.P,J1,B6,DP2*%
%TO.N,/USB_P*%
X94042500Y-77622500D03*
%TO.P,J1,B7,DN2*%
%TO.N,/USB_N*%
X94042500Y-76122500D03*
%TO.P,J1,B8,SBU2*%
%TO.N,unconnected-(J1-SBU2-PadB8)*%
X94042500Y-75122500D03*
D33*
%TO.P,J1,SH1,SHELL_GND*%
%TO.N,GND*%
X93467500Y-72552500D03*
%TO.P,J1,SH2,SHELL_GND*%
X93467500Y-81192500D03*
D34*
%TO.P,J1,SH3,SHELL_GND*%
X89287500Y-72552500D03*
%TO.P,J1,SH4,SHELL_GND*%
X89287500Y-81192500D03*
%TD*%
D35*
%TO.P,C5,1*%
%TO.N,+5V*%
X161837500Y-85950000D03*
%TO.P,C5,2*%
%TO.N,GND*%
X159762500Y-85950000D03*
%TD*%
D25*
%TO.P,C7,1*%
%TO.N,/EN*%
X95350000Y-116162500D03*
%TO.P,C7,2*%
%TO.N,GND*%
X95350000Y-118237500D03*
%TD*%
D23*
%TO.P,H2,1,1*%
%TO.N,GND*%
X195850000Y-144150000D03*
%TD*%
D19*
%TO.P,R3,1*%
%TO.N,Net-(J1-CC1)*%
X90450000Y-69450000D03*
%TO.P,R3,2*%
%TO.N,GND*%
X88450000Y-69450000D03*
%TD*%
D25*
%TO.P,C6,1*%
%TO.N,/BOOT*%
X95062500Y-132900000D03*
%TO.P,C6,2*%
%TO.N,GND*%
X95062500Y-134975000D03*
%TD*%
D19*
%TO.P,R2,1*%
%TO.N,Net-(J1-CC2)*%
X91987500Y-84522500D03*
%TO.P,R2,2*%
%TO.N,GND*%
X89987500Y-84522500D03*
%TD*%
D36*
%TO.P,U2,1,GND*%
%TO.N,GND*%
X169450000Y-64330000D03*
%TO.P,U2,2,3V3*%
%TO.N,+3.3V*%
X169450000Y-65600000D03*
%TO.P,U2,3,EN*%
%TO.N,/EN*%
X169450000Y-66870000D03*
%TO.P,U2,4,IO4*%
%TO.N,/TFT_DC*%
X169450000Y-68140000D03*
%TO.P,U2,5,IO5*%
%TO.N,/SD_CS*%
X169450000Y-69410000D03*
%TO.P,U2,6,IO6*%
%TO.N,/TFT_CS*%
X169450000Y-70680000D03*
%TO.P,U2,7,IO7*%
%TO.N,/T_CS*%
X169450000Y-71950000D03*
%TO.P,U2,8,IO15*%
%TO.N,/SDA*%
X169450000Y-73220000D03*
%TO.P,U2,9,IO16*%
%TO.N,/TFT_RST*%
X169450000Y-74490000D03*
%TO.P,U2,10,IO17*%
%TO.N,/MISO*%
X169450000Y-75760000D03*
%TO.P,U2,11,IO18*%
%TO.N,/SCK*%
X169450000Y-77030000D03*
%TO.P,U2,12,IO8*%
%TO.N,/SW1*%
X169450000Y-78300000D03*
%TO.P,U2,13,USB_D-*%
%TO.N,/D-*%
X169450000Y-79570000D03*
%TO.P,U2,14,USB_D+*%
%TO.N,/D+*%
X169450000Y-80840000D03*
D37*
%TO.P,U2,15,IO3*%
%TO.N,unconnected-(U2-IO3-Pad15)*%
X171215000Y-82090000D03*
%TO.P,U2,16,IO46*%
%TO.N,unconnected-(U2-IO46-Pad16)*%
X172485000Y-82090000D03*
%TO.P,U2,17,IO9*%
%TO.N,unconnected-(U2-IO9-Pad17)*%
X173755000Y-82090000D03*
%TO.P,U2,18,IO10*%
%TO.N,unconnected-(U2-IO10-Pad18)*%
X175025000Y-82090000D03*
%TO.P,U2,19,IO11*%
%TO.N,/LED1*%
X176295000Y-82090000D03*
%TO.P,U2,20,IO12*%
%TO.N,unconnected-(U2-IO12-Pad20)*%
X177565000Y-82090000D03*
%TO.P,U2,21,IO13*%
%TO.N,unconnected-(U2-IO13-Pad21)*%
X178835000Y-82090000D03*
%TO.P,U2,22,IO14*%
%TO.N,/SCL*%
X180105000Y-82090000D03*
%TO.P,U2,23,IO21*%
%TO.N,/MOSI*%
X181375000Y-82090000D03*
%TO.P,U2,24,IO47*%
%TO.N,unconnected-(U2-IO47-Pad24)*%
X182645000Y-82090000D03*
%TO.P,U2,25,IO48*%
%TO.N,unconnected-(U2-IO48-Pad25)*%
X183915000Y-82090000D03*
%TO.P,U2,26,IO45*%
%TO.N,unconnected-(U2-IO45-Pad26)*%
X185185000Y-82090000D03*
D36*
%TO.P,U2,27,IO0*%
%TO.N,/BOOT*%
X186950000Y-80840000D03*
%TO.P,U2,28,IO35*%
%TO.N,unconnected-(U2-IO35-Pad28)*%
X186950000Y-79570000D03*
%TO.P,U2,29,IO36*%
%TO.N,unconnected-(U2-IO36-Pad29)*%
X186950000Y-78300000D03*
%TO.P,U2,30,IO37*%
%TO.N,unconnected-(U2-IO37-Pad30)*%
X186950000Y-77030000D03*
%TO.P,U2,31,IO38*%
%TO.N,/TFT_LED*%
X186950000Y-75760000D03*
%TO.P,U2,32,IO39*%
%TO.N,/T_IRQ*%
X186950000Y-74490000D03*
%TO.P,U2,33,IO40*%
%TO.N,unconnected-(U2-IO40-Pad33)*%
X186950000Y-73220000D03*
%TO.P,U2,34,IO41*%
%TO.N,unconnected-(U2-IO41-Pad34)*%
X186950000Y-71950000D03*
%TO.P,U2,35,IO42*%
%TO.N,unconnected-(U2-IO42-Pad35)*%
X186950000Y-70680000D03*
%TO.P,U2,36,RXD0*%
%TO.N,unconnected-(U2-RXD0-Pad36)*%
X186950000Y-69410000D03*
%TO.P,U2,37,TXD0*%
%TO.N,unconnected-(U2-TXD0-Pad37)*%
X186950000Y-68140000D03*
%TO.P,U2,38,IO2*%
%TO.N,unconnected-(U2-IO2-Pad38)*%
X186950000Y-66870000D03*
%TO.P,U2,39,IO1*%
%TO.N,/POT1*%
X186950000Y-65600000D03*
%TO.P,U2,40,GND*%
%TO.N,GND*%
X186950000Y-64330000D03*
D38*
%TO.P,U2,41,GND*%
X175300000Y-71350000D03*
X175300000Y-72750000D03*
X176000000Y-70650000D03*
X176000000Y-72050000D03*
X176000000Y-73450000D03*
X176700000Y-71350000D03*
D39*
X176700000Y-72050000D03*
D38*
X176700000Y-72750000D03*
X177400000Y-70650000D03*
X177400000Y-72050000D03*
X177400000Y-73450000D03*
X178100000Y-71350000D03*
X178100000Y-72750000D03*
%TD*%
D40*
%TO.P,C4,1*%
%TO.N,+3.3V*%
X157450000Y-66837500D03*
%TO.P,C4,2*%
%TO.N,GND*%
X157450000Y-64762500D03*
%TD*%
D23*
%TO.P,H4,1,1*%
%TO.N,GND*%
X90550000Y-57150000D03*
%TD*%
%TO.P,H1,1,1*%
%TO.N,GND*%
X195900000Y-66500000D03*
%TD*%
D41*
%TO.N,GND*%
X178500000Y-74400000D03*
X183795452Y-113386214D03*
X185750000Y-114366000D03*
%TO.N,+3.3V*%
X192800000Y-112650000D03*
X184900000Y-126900000D03*
D42*
%TO.N,/LED1*%
X187750000Y-125350000D03*
X187650000Y-120300000D03*
D41*
%TO.N,+5V*%
X134151000Y-86450000D03*
X120400000Y-86400000D03*
D42*
%TO.N,/SDA*%
X174500000Y-112900000D03*
X171100000Y-73200000D03*
%TO.N,/MOSI*%
X174200000Y-65650000D03*
%TO.N,/SCL*%
X156400000Y-144150000D03*
%TO.N,/TFT_LED*%
X158000000Y-144400000D03*
%TO.N,/T_IRQ*%
X195350000Y-131850000D03*
D41*
%TO.N,+3.3V*%
X173300000Y-94150000D03*
X171400000Y-80550000D03*
D42*
%TO.N,/SW1*%
X165450000Y-127300000D03*
X167000000Y-79020000D03*
%TO.N,/MISO*%
X129760000Y-78750000D03*
X131950000Y-78750000D03*
X150100000Y-75950000D03*
X139150000Y-78750000D03*
%TO.N,/SDA*%
X150100000Y-73350000D03*
%TO.N,/SCK*%
X132600764Y-60699236D03*
X126000000Y-59900000D03*
%TO.N,/T_CS*%
X148000000Y-73650000D03*
%TO.N,/TFT_DC*%
X164550000Y-68050000D03*
%TO.N,/EN*%
X100350000Y-116050000D03*
X164450000Y-66900000D03*
%TO.N,/TFT_DC*%
X133450000Y-84650000D03*
%TO.N,/TFT_CS*%
X144200000Y-70600000D03*
X121540000Y-70600000D03*
D41*
%TO.N,GND*%
X186100000Y-110200000D03*
X172450000Y-94250000D03*
X158450000Y-85950000D03*
X158400000Y-82250000D03*
X166950000Y-130050000D03*
D42*
%TO.N,/USB_N*%
X96550000Y-76200000D03*
X97100000Y-79600000D03*
X120350000Y-83200000D03*
X131750000Y-83200000D03*
%TO.N,/USB_P*%
X120350000Y-81350000D03*
X131700000Y-81350000D03*
D41*
%TO.N,+5V*%
X95650000Y-74450000D03*
X95650000Y-79250000D03*
%TO.N,GND*%
X92900000Y-134400000D03*
%TD*%
D43*
%TO.N,/BOOT*%
X194840000Y-80840000D02*
X186950000Y-80840000D01*
X194850000Y-80850000D02*
X194840000Y-80840000D01*
X195050000Y-80850000D02*
X194850000Y-80850000D01*
X196148000Y-81948000D02*
X195050000Y-80850000D01*
X196148000Y-122402000D02*
X196148000Y-81948000D01*
X195450000Y-123100000D02*
X196148000Y-122402000D01*
X162241480Y-123100000D02*
X195450000Y-123100000D01*
X156398943Y-145001000D02*
X157001000Y-144398943D01*
X157001000Y-144398943D02*
X157001000Y-128340480D01*
X113319000Y-143257471D02*
X115062529Y-145001000D01*
X157001000Y-128340480D02*
X162241480Y-123100000D01*
X113319000Y-142262529D02*
X113319000Y-143257471D01*
X95062500Y-132900000D02*
X103956471Y-132900000D01*
X103956471Y-132900000D02*
X113319000Y-142262529D01*
X115062529Y-145001000D02*
X156398943Y-145001000D01*
%TO.N,/TFT_LED*%
X196649000Y-76569000D02*
X195840000Y-75760000D01*
X195850000Y-123600000D02*
X196649000Y-122801000D01*
X195840000Y-75760000D02*
X186950000Y-75760000D01*
X162450000Y-123600000D02*
X195850000Y-123600000D01*
X196649000Y-122801000D02*
X196649000Y-76569000D01*
X158000000Y-128050000D02*
X162450000Y-123600000D01*
X158000000Y-144400000D02*
X158000000Y-128050000D01*
%TO.N,GND*%
X178500000Y-73850000D02*
X178500000Y-74400000D01*
X176700000Y-72050000D02*
X178500000Y-73850000D01*
X183800000Y-113381666D02*
X183795452Y-113386214D01*
X183800000Y-113076000D02*
X183963998Y-113076000D01*
X183800000Y-113076000D02*
X183800000Y-113381666D01*
X185696000Y-114420000D02*
X185750000Y-114366000D01*
X184925000Y-114420000D02*
X185696000Y-114420000D01*
X184275000Y-112764998D02*
X184275000Y-112480000D01*
X183963998Y-113076000D02*
X184275000Y-112764998D01*
X183286002Y-113076000D02*
X183800000Y-113076000D01*
X182975000Y-112764998D02*
X183286002Y-113076000D01*
X182975000Y-112480000D02*
X182975000Y-112764998D01*
%TO.N,+3.3V*%
X184925000Y-113175000D02*
X184925000Y-112480000D01*
X184275000Y-113825000D02*
X184925000Y-113175000D01*
X184275000Y-114420000D02*
X184275000Y-113825000D01*
X183625000Y-112092500D02*
X184167500Y-111550000D01*
X183625000Y-112480000D02*
X183625000Y-112092500D01*
D44*
X192687500Y-112537500D02*
X187675000Y-112537500D01*
X192800000Y-112650000D02*
X192687500Y-112537500D01*
X184800000Y-127000000D02*
X184900000Y-126900000D01*
X184800000Y-134300000D02*
X184800000Y-127000000D01*
X186500000Y-137050000D02*
X186500000Y-136000000D01*
X186500000Y-136000000D02*
X184800000Y-134300000D01*
D43*
%TO.N,/LED1*%
X187750000Y-125350000D02*
X177900000Y-125350000D01*
X187800000Y-120150000D02*
X187650000Y-120300000D01*
X194100000Y-120150000D02*
X187800000Y-120150000D01*
X195146000Y-119104000D02*
X194100000Y-120150000D01*
X195146000Y-87250000D02*
X195146000Y-119104000D01*
X178050000Y-85850000D02*
X193900000Y-85850000D01*
X177550000Y-85350000D02*
X178050000Y-85850000D01*
X193900000Y-85850000D02*
X193900000Y-85950000D01*
X176295000Y-84095000D02*
X177550000Y-85350000D01*
X193900000Y-85950000D02*
X195146000Y-87196000D01*
X176295000Y-82090000D02*
X176295000Y-84095000D01*
X195146000Y-87196000D02*
X195146000Y-87250000D01*
%TO.N,/SCL*%
X182975000Y-119725000D02*
X182975000Y-114420000D01*
X184150000Y-120900000D02*
X182975000Y-119725000D01*
X194400000Y-120900000D02*
X184150000Y-120900000D01*
X195647000Y-119653000D02*
X194400000Y-120900000D01*
X195647000Y-85997000D02*
X195647000Y-119653000D01*
X194250000Y-84600000D02*
X195647000Y-85997000D01*
X180700000Y-84600000D02*
X194250000Y-84600000D01*
X180105000Y-84005000D02*
X180700000Y-84600000D01*
X180105000Y-82090000D02*
X180105000Y-84005000D01*
D44*
%TO.N,+3.3V*%
X182787500Y-95962500D02*
X182787500Y-110170000D01*
X182825000Y-95925000D02*
X182787500Y-95962500D01*
X181900000Y-95000000D02*
X182825000Y-95925000D01*
X180700000Y-95000000D02*
X181900000Y-95000000D01*
%TO.N,+5V*%
X135251000Y-87550000D02*
X160237500Y-87550000D01*
X134151000Y-86450000D02*
X135251000Y-87550000D01*
X102800000Y-86400000D02*
X120400000Y-86400000D01*
X95650000Y-79250000D02*
X102800000Y-86400000D01*
X160237500Y-87550000D02*
X161837500Y-85950000D01*
D43*
%TO.N,/SDA*%
X182978498Y-113488500D02*
X183625000Y-114135002D01*
X175088500Y-113488500D02*
X182978498Y-113488500D01*
X174500000Y-112900000D02*
X175088500Y-113488500D01*
X171080000Y-73220000D02*
X171100000Y-73200000D01*
X183625000Y-114135002D02*
X183625000Y-114420000D01*
X169450000Y-73220000D02*
X171080000Y-73220000D01*
D44*
%TO.N,+3.3V*%
X172650000Y-79300000D02*
X171400000Y-80550000D01*
X172650000Y-67450000D02*
X172650000Y-79300000D01*
X170800000Y-65600000D02*
X172650000Y-67450000D01*
X169450000Y-65600000D02*
X170800000Y-65600000D01*
D43*
%TO.N,/MOSI*%
X174250000Y-65600000D02*
X174200000Y-65650000D01*
X180000000Y-65600000D02*
X174250000Y-65600000D01*
X181375000Y-66975000D02*
X180000000Y-65600000D01*
X181375000Y-82090000D02*
X181375000Y-66975000D01*
%TO.N,/SCL*%
X180225000Y-121125000D02*
X180225000Y-114537500D01*
X180250000Y-121150000D02*
X180225000Y-121125000D01*
X178900000Y-122500000D02*
X180250000Y-121150000D01*
X161700000Y-122500000D02*
X178900000Y-122500000D01*
X156400000Y-127800000D02*
X161700000Y-122500000D01*
X156400000Y-144150000D02*
X156400000Y-127800000D01*
%TO.N,/T_IRQ*%
X197150000Y-130050000D02*
X195350000Y-131850000D01*
X197150000Y-75350000D02*
X197150000Y-130050000D01*
X196390000Y-74490000D02*
X197150000Y-75250000D01*
X197150000Y-75250000D02*
X197150000Y-75350000D01*
X186950000Y-74490000D02*
X196390000Y-74490000D01*
D44*
%TO.N,+3.3V*%
X174050000Y-94150000D02*
X174900000Y-95000000D01*
X173300000Y-94150000D02*
X174050000Y-94150000D01*
D43*
%TO.N,/SW1*%
X163400000Y-129350000D02*
X163400000Y-131200000D01*
X165450000Y-127300000D02*
X163400000Y-129350000D01*
X167720000Y-78300000D02*
X167000000Y-79020000D01*
X169450000Y-78300000D02*
X167720000Y-78300000D01*
%TO.N,/MISO*%
X129760000Y-78750000D02*
X129760000Y-142760000D01*
X139150000Y-78750000D02*
X131950000Y-78750000D01*
X150290000Y-75760000D02*
X150100000Y-75950000D01*
X169450000Y-75760000D02*
X150290000Y-75760000D01*
%TO.N,/SDA*%
X150230000Y-73220000D02*
X150100000Y-73350000D01*
X169450000Y-73220000D02*
X150230000Y-73220000D01*
%TO.N,/SCK*%
X126019000Y-59900000D02*
X126000000Y-59900000D01*
X126019000Y-141421000D02*
X126019000Y-59900000D01*
X124680000Y-142760000D02*
X126019000Y-141421000D01*
%TO.N,/T_CS*%
X149700000Y-71950000D02*
X148000000Y-73650000D01*
X169450000Y-71950000D02*
X149700000Y-71950000D01*
%TO.N,/TFT_DC*%
X164640000Y-68140000D02*
X164550000Y-68050000D01*
X169450000Y-68140000D02*
X164640000Y-68140000D01*
%TO.N,/EN*%
X100237500Y-116162500D02*
X95350000Y-116162500D01*
X100350000Y-116050000D02*
X100237500Y-116162500D01*
X164480000Y-66870000D02*
X164450000Y-66900000D01*
X169450000Y-66870000D02*
X164480000Y-66870000D01*
%TO.N,/TFT_DC*%
X133501000Y-84701000D02*
X133450000Y-84650000D01*
X133501000Y-143257471D02*
X133501000Y-84701000D01*
X117063529Y-144462000D02*
X132296471Y-144462000D01*
X115859000Y-143257471D02*
X117063529Y-144462000D01*
X116562529Y-141559000D02*
X115859000Y-142262529D01*
X132296471Y-144462000D02*
X133501000Y-143257471D01*
X118399000Y-141559000D02*
X116562529Y-141559000D01*
X115859000Y-142262529D02*
X115859000Y-143257471D01*
X119600000Y-142760000D02*
X118399000Y-141559000D01*
%TO.N,/TFT_RST*%
X147240057Y-74490000D02*
X169450000Y-74490000D01*
X130961000Y-58210943D02*
X147240057Y-74490000D01*
X130961000Y-57342529D02*
X130961000Y-58210943D01*
X130257471Y-56639000D02*
X130961000Y-57342529D01*
X129262529Y-56639000D02*
X130257471Y-56639000D01*
X128559000Y-57342529D02*
X129262529Y-56639000D01*
X128559000Y-58337471D02*
X128559000Y-57342529D01*
X130961000Y-60739471D02*
X128559000Y-58337471D01*
X130961000Y-143257471D02*
X130961000Y-60739471D01*
X130257471Y-143961000D02*
X130961000Y-143257471D01*
X118261000Y-143961000D02*
X130257471Y-143961000D01*
X117060000Y-142760000D02*
X118261000Y-143961000D01*
%TO.N,/TFT_CS*%
X169370000Y-70600000D02*
X144200000Y-70600000D01*
X169450000Y-70680000D02*
X169370000Y-70600000D01*
X121600000Y-135680000D02*
X121600000Y-70600000D01*
X114520000Y-142760000D02*
X121600000Y-135680000D01*
X121600000Y-70600000D02*
X121540000Y-70600000D01*
%TO.N,/SD_CS*%
X156840000Y-69410000D02*
X169450000Y-69410000D01*
X156650000Y-69600000D02*
X156840000Y-69410000D01*
X153350000Y-66300000D02*
X156650000Y-69600000D01*
X153350000Y-56950000D02*
X153350000Y-66300000D01*
X151750000Y-55350000D02*
X153350000Y-56950000D01*
X122140000Y-55710000D02*
X122500000Y-55350000D01*
X122500000Y-55350000D02*
X151750000Y-55350000D01*
X122140000Y-57840000D02*
X122140000Y-55710000D01*
%TO.N,/SCK*%
X148950000Y-77030000D02*
X169450000Y-77030000D01*
X129760000Y-57840000D02*
X148950000Y-77030000D01*
D44*
%TO.N,+3.3V*%
X181170000Y-110170000D02*
X182787500Y-110170000D01*
X181150000Y-110150000D02*
X181170000Y-110170000D01*
X180225000Y-111075000D02*
X181150000Y-110150000D01*
X180225000Y-112537500D02*
X180225000Y-111075000D01*
%TO.N,GND*%
X186070000Y-110170000D02*
X186100000Y-110200000D01*
X184862500Y-110170000D02*
X186070000Y-110170000D01*
%TO.N,+3.3V*%
X187675000Y-111825000D02*
X187675000Y-112537500D01*
X187400000Y-111550000D02*
X187675000Y-111825000D01*
X184167500Y-111550000D02*
X187400000Y-111550000D01*
X182787500Y-110170000D02*
X184167500Y-111550000D01*
X185008500Y-112537500D02*
X184951000Y-112480000D01*
X187675000Y-112537500D02*
X185008500Y-112537500D01*
D43*
%TO.N,/SDA*%
X187196500Y-115016000D02*
X187675000Y-114537500D01*
X183625000Y-114704998D02*
X183936002Y-115016000D01*
X183936002Y-115016000D02*
X187196500Y-115016000D01*
X183625000Y-114420000D02*
X183625000Y-114704998D01*
%TO.N,/SCL*%
X182857500Y-114537500D02*
X182975000Y-114420000D01*
X180225000Y-114537500D02*
X182857500Y-114537500D01*
D44*
%TO.N,+5V*%
X168850000Y-97390000D02*
X170300000Y-98840000D01*
X168850000Y-91750000D02*
X168850000Y-97390000D01*
X169637500Y-90962500D02*
X168850000Y-91750000D01*
X170300000Y-90962500D02*
X169637500Y-90962500D01*
%TO.N,GND*%
X172450000Y-93037500D02*
X172450000Y-94250000D01*
X172450000Y-93037500D02*
X174562500Y-93037500D01*
X159762500Y-85950000D02*
X158450000Y-85950000D01*
X160012500Y-82250000D02*
X158400000Y-82250000D01*
%TO.N,+5V*%
X164050000Y-82400000D02*
X163900000Y-82250000D01*
X164050000Y-85350000D02*
X164050000Y-82400000D01*
X163900000Y-82250000D02*
X168800000Y-82250000D01*
X163450000Y-85950000D02*
X164050000Y-85350000D01*
X161837500Y-85950000D02*
X163450000Y-85950000D01*
%TO.N,GND*%
X165800000Y-131200000D02*
X166950000Y-130050000D01*
X165400000Y-131200000D02*
X165800000Y-131200000D01*
D43*
%TO.N,/POT1*%
X196150000Y-133050000D02*
X187650000Y-133050000D01*
X197950000Y-74550000D02*
X197950000Y-131250000D01*
X196100000Y-72700000D02*
X197950000Y-74550000D01*
X192550000Y-67000000D02*
X192550000Y-70650000D01*
X197950000Y-131250000D02*
X196150000Y-133050000D01*
X191150000Y-65600000D02*
X192550000Y-67000000D01*
X194600000Y-72700000D02*
X196100000Y-72700000D01*
X192550000Y-70650000D02*
X194600000Y-72700000D01*
X186950000Y-65600000D02*
X191150000Y-65600000D01*
D44*
%TO.N,+3.3V*%
X160800000Y-144350000D02*
X160800000Y-137800000D01*
X109440000Y-145090000D02*
X110700000Y-146350000D01*
X158800000Y-146350000D02*
X160800000Y-144350000D01*
X109440000Y-142760000D02*
X109440000Y-145090000D01*
X110700000Y-146350000D02*
X158800000Y-146350000D01*
D45*
%TO.N,/USB_N*%
X96472500Y-76122500D02*
X96550000Y-76200000D01*
X94042500Y-76122500D02*
X96472500Y-76122500D01*
%TO.N,/USB_P*%
X94992000Y-77500000D02*
X94946000Y-77546000D01*
X96550000Y-77500000D02*
X94992000Y-77500000D01*
X94946000Y-77546000D02*
X94869500Y-77622500D01*
X100400000Y-81350000D02*
X96550000Y-77500000D01*
X120350000Y-81350000D02*
X100400000Y-81350000D01*
%TO.N,/USB_N*%
X97250000Y-79750000D02*
X97100000Y-79600000D01*
X97250000Y-79800000D02*
X97250000Y-79750000D01*
X100650000Y-83200000D02*
X97250000Y-79800000D01*
X120350000Y-83200000D02*
X100650000Y-83200000D01*
X160012500Y-83200000D02*
X131750000Y-83200000D01*
%TO.N,/USB_P*%
X160012500Y-81300000D02*
X131750000Y-81300000D01*
X131750000Y-81300000D02*
X131700000Y-81350000D01*
D44*
%TO.N,+5V*%
X170300000Y-83750000D02*
X170300000Y-90962500D01*
X168800000Y-82250000D02*
X170300000Y-83750000D01*
X162287500Y-82250000D02*
X163900000Y-82250000D01*
D45*
%TO.N,/D-*%
X162713032Y-79570000D02*
X169450000Y-79570000D01*
X161324000Y-80959032D02*
X162713032Y-79570000D01*
X161324000Y-82898999D02*
X161324000Y-80959032D01*
X161625001Y-83200000D02*
X161324000Y-82898999D01*
X162287500Y-83200000D02*
X161625001Y-83200000D01*
%TO.N,/D+*%
X168990000Y-81300000D02*
X169450000Y-80840000D01*
X162287500Y-81300000D02*
X168990000Y-81300000D01*
D44*
%TO.N,GND*%
X186950000Y-64330000D02*
X169450000Y-64330000D01*
X193730000Y-64330000D02*
X195900000Y-66500000D01*
X186950000Y-64330000D02*
X193730000Y-64330000D01*
%TO.N,+3.3V*%
X163040000Y-65600000D02*
X169450000Y-65600000D01*
X160750000Y-67890000D02*
X163040000Y-65600000D01*
%TO.N,GND*%
X163030000Y-64330000D02*
X169450000Y-64330000D01*
X162190000Y-65010000D02*
X162950000Y-64250000D01*
X162950000Y-64250000D02*
X163030000Y-64330000D01*
X160750000Y-65010000D02*
X162190000Y-65010000D01*
%TO.N,+3.3V*%
X159697500Y-66837500D02*
X160750000Y-67890000D01*
X157450000Y-66837500D02*
X159697500Y-66837500D01*
%TO.N,GND*%
X160502500Y-64762500D02*
X160750000Y-65010000D01*
X157450000Y-64762500D02*
X160502500Y-64762500D01*
%TO.N,+3.3V*%
X174900000Y-95000000D02*
X180700000Y-95000000D01*
%TO.N,+5V*%
X173360000Y-98840000D02*
X174900000Y-97300000D01*
X170300000Y-98840000D02*
X173360000Y-98840000D01*
%TO.N,GND*%
X174562500Y-93037500D02*
X174900000Y-92700000D01*
X170300000Y-93037500D02*
X172450000Y-93037500D01*
X170300000Y-93037500D02*
X170300000Y-95960000D01*
D43*
%TO.N,/MISO*%
X129760000Y-60380000D02*
X129760000Y-78750000D01*
X127220000Y-57840000D02*
X129760000Y-60380000D01*
%TO.N,/MOSI*%
X122140000Y-60380000D02*
X122140000Y-142760000D01*
X124680000Y-57840000D02*
X122140000Y-60380000D01*
D44*
%TO.N,+3.3V*%
X87400000Y-124801000D02*
X87399000Y-124800000D01*
X87399000Y-124800000D02*
X87399000Y-125599000D01*
X89199000Y-136349000D02*
X87400000Y-134550000D01*
X103029000Y-136349000D02*
X89199000Y-136349000D01*
X109440000Y-142760000D02*
X103029000Y-136349000D01*
X87400000Y-134550000D02*
X87400000Y-124801000D01*
%TO.N,GND*%
X93475000Y-134975000D02*
X92900000Y-134400000D01*
X95062500Y-134975000D02*
X93475000Y-134975000D01*
D43*
%TO.N,/BOOT*%
X95062500Y-131137500D02*
X95062500Y-132900000D01*
X94400000Y-130400000D02*
X95100000Y-131100000D01*
X95100000Y-131100000D02*
X95062500Y-131137500D01*
X92412500Y-130400000D02*
X94400000Y-130400000D01*
X89412500Y-130400000D02*
X92412500Y-130400000D01*
D44*
%TO.N,GND*%
X89412500Y-142312500D02*
X90550000Y-143450000D01*
X89412500Y-137600000D02*
X89412500Y-142312500D01*
X89412500Y-137600000D02*
X92412500Y-137600000D01*
X88461500Y-86048500D02*
X89987500Y-84522500D01*
X88461500Y-121899000D02*
X88461500Y-86048500D01*
X89612500Y-123050000D02*
X88461500Y-121899000D01*
D43*
%TO.N,/EN*%
X96426000Y-120224000D02*
X95400000Y-121250000D01*
X96426000Y-117238500D02*
X96426000Y-120224000D01*
X95350000Y-116162500D02*
X96426000Y-117238500D01*
D44*
%TO.N,GND*%
X93812500Y-118237500D02*
X95350000Y-118237500D01*
X92612500Y-119437500D02*
X93812500Y-118237500D01*
X92612500Y-123050000D02*
X92612500Y-119437500D01*
X89612500Y-123050000D02*
X92612500Y-123050000D01*
D43*
%TO.N,/EN*%
X95037500Y-115850000D02*
X95350000Y-116162500D01*
X92612500Y-115850000D02*
X95037500Y-115850000D01*
X89612500Y-115850000D02*
X92612500Y-115850000D01*
D44*
%TO.N,+3.3V*%
X95400000Y-126900000D02*
X95400000Y-123250000D01*
X89150000Y-127350000D02*
X94950000Y-127350000D01*
X87399000Y-125599000D02*
X89150000Y-127350000D01*
X88150000Y-64900000D02*
X87399000Y-65651000D01*
X87399000Y-65651000D02*
X87399000Y-124800000D01*
X94950000Y-127350000D02*
X95400000Y-126900000D01*
X90262500Y-64900000D02*
X88150000Y-64900000D01*
%TO.N,+5V*%
X94065000Y-74450000D02*
X94042500Y-74472500D01*
X95650000Y-74450000D02*
X94065000Y-74450000D01*
X95627500Y-79272500D02*
X95650000Y-79250000D01*
X94042500Y-79272500D02*
X95627500Y-79272500D01*
D45*
%TO.N,/USB_P*%
X94869500Y-77622500D02*
X94042500Y-77622500D01*
X95050000Y-77442000D02*
X94946000Y-77546000D01*
X94869500Y-76622500D02*
X95050000Y-76803000D01*
X94042500Y-76622500D02*
X94869500Y-76622500D01*
X95050000Y-76803000D02*
X95050000Y-77442000D01*
%TO.N,/USB_N*%
X93372500Y-77122500D02*
X94042500Y-77122500D01*
X93000000Y-76750000D02*
X93372500Y-77122500D01*
X93000000Y-76400000D02*
X93000000Y-76750000D01*
X93277500Y-76122500D02*
X93000000Y-76400000D01*
X94042500Y-76122500D02*
X93277500Y-76122500D01*
D44*
%TO.N,GND*%
X94042500Y-73127500D02*
X93467500Y-72552500D01*
X94042500Y-73672500D02*
X94042500Y-73127500D01*
X94042500Y-80617500D02*
X93467500Y-81192500D01*
X94042500Y-80072500D02*
X94042500Y-80617500D01*
D43*
%TO.N,Net-(J1-CC2)*%
X93080781Y-78622500D02*
X94042500Y-78622500D01*
X91987500Y-79715781D02*
X93080781Y-78622500D01*
X91987500Y-84522500D02*
X91987500Y-79715781D01*
D44*
%TO.N,GND*%
X89200000Y-83800000D02*
X89287500Y-83712500D01*
X89287500Y-83712500D02*
X89287500Y-81192500D01*
X89922500Y-84522500D02*
X89200000Y-83800000D01*
X89987500Y-84522500D02*
X89922500Y-84522500D01*
D43*
%TO.N,Net-(J1-CC1)*%
X92222500Y-75622500D02*
X94042500Y-75622500D01*
X91700000Y-71900000D02*
X91700000Y-75100000D01*
X91700000Y-75100000D02*
X92222500Y-75622500D01*
X90450000Y-70650000D02*
X91700000Y-71900000D01*
X90450000Y-69450000D02*
X90450000Y-70650000D01*
D44*
%TO.N,GND*%
X94750000Y-69450000D02*
X94750000Y-71270000D01*
X94750000Y-71270000D02*
X93467500Y-72552500D01*
D43*
%TO.N,/PWD_LED*%
X92137500Y-68837500D02*
X92750000Y-69450000D01*
X92137500Y-64900000D02*
X92137500Y-68837500D01*
D44*
%TO.N,GND*%
X88450000Y-71715000D02*
X89287500Y-72552500D01*
X88450000Y-69450000D02*
X88450000Y-71715000D01*
X173850000Y-125350000D02*
X176000000Y-125350000D01*
X173300000Y-125900000D02*
X173850000Y-125350000D01*
X173300000Y-129600000D02*
X173300000Y-125900000D01*
X171700000Y-131200000D02*
X173300000Y-129600000D01*
X165400000Y-131200000D02*
X171700000Y-131200000D01*
%TO.N,+3.3V*%
X177750000Y-138600000D02*
X175950000Y-136800000D01*
X184950000Y-138600000D02*
X177750000Y-138600000D01*
X186500000Y-137050000D02*
X184950000Y-138600000D01*
%TO.N,GND*%
X195850000Y-139650000D02*
X195850000Y-144150000D01*
X193250000Y-137050000D02*
X195850000Y-139650000D01*
X188800000Y-137050000D02*
X193250000Y-137050000D01*
%TO.N,+3.3V*%
X172950000Y-136800000D02*
X175950000Y-136800000D01*
X171950000Y-137800000D02*
X172950000Y-136800000D01*
X168000000Y-137800000D02*
X171950000Y-137800000D01*
D43*
%TO.N,Net-(LED2-A)*%
X177907500Y-136757500D02*
X177950000Y-136800000D01*
X177907500Y-132700000D02*
X177907500Y-136757500D01*
%TO.N,/SW1*%
X162150000Y-131200000D02*
X163400000Y-131200000D01*
X160800000Y-134800000D02*
X160800000Y-132550000D01*
X160800000Y-132550000D02*
X162150000Y-131200000D01*
D44*
%TO.N,+3.3V*%
X160800000Y-137800000D02*
X168000000Y-137800000D01*
D43*
%TO.N,/SW1*%
X160800000Y-134800000D02*
X168000000Y-134800000D01*
%TO.N,Net-(LED2-K)*%
X176950000Y-127550000D02*
X176950000Y-130050000D01*
X176950000Y-130050000D02*
X176032500Y-130967500D01*
X176032500Y-130967500D02*
X176032500Y-132700000D01*
%TD*%
M02*
