%TF.GenerationSoftware,KiCad,Pcbnew,9.0.1*%
%TF.CreationDate,2025-06-20T23:10:46-05:00*%
%TF.ProjectId,LVGL_Training_Board,4c56474c-5f54-4726-9169-6e696e675f42,rev?*%
%TF.SameCoordinates,Original*%
%TF.FileFunction,Paste,Top*%
%TF.FilePolarity,Positive*%
%FSLAX46Y46*%
G04 Gerber Fmt 4.6, Leading zero omitted, Abs format (unit mm)*
G04 Created by KiCad (PCBNEW 9.0.1) date 2025-06-20 23:10:46*
%MOMM*%
%LPD*%
G01*
G04 APERTURE LIST*
G04 Aperture macros list*
%AMRoundRect*
0 Rectangle with rounded corners*
0 $1 Rounding radius*
0 $2 $3 $4 $5 $6 $7 $8 $9 X,Y pos of 4 corners*
0 Add a 4 corners polygon primitive as box body*
4,1,4,$2,$3,$4,$5,$6,$7,$8,$9,$2,$3,0*
0 Add four circle primitives for the rounded corners*
1,1,$1+$1,$2,$3*
1,1,$1+$1,$4,$5*
1,1,$1+$1,$6,$7*
1,1,$1+$1,$8,$9*
0 Add four rect primitives between the rounded corners*
20,1,$1+$1,$2,$3,$4,$5,0*
20,1,$1+$1,$4,$5,$6,$7,0*
20,1,$1+$1,$6,$7,$8,$9,0*
20,1,$1+$1,$8,$9,$2,$3,0*%
G04 Aperture macros list end*
%ADD10RoundRect,0.243750X-0.243750X-0.456250X0.243750X-0.456250X0.243750X0.456250X-0.243750X0.456250X0*%
%ADD11RoundRect,0.250000X-0.350000X-0.450000X0.350000X-0.450000X0.350000X0.450000X-0.350000X0.450000X0*%
%ADD12R,1.000000X1.400000*%
%ADD13RoundRect,0.056250X-0.168750X0.188750X-0.168750X-0.188750X0.168750X-0.188750X0.168750X0.188750X0*%
%ADD14RoundRect,0.250000X-0.450000X0.350000X-0.450000X-0.350000X0.450000X-0.350000X0.450000X0.350000X0*%
%ADD15RoundRect,0.250000X-0.337500X-0.475000X0.337500X-0.475000X0.337500X0.475000X-0.337500X0.475000X0*%
%ADD16R,1.300000X2.000000*%
%ADD17R,2.000000X2.000000*%
%ADD18R,1.600000X1.400000*%
%ADD19RoundRect,0.250000X0.350000X0.450000X-0.350000X0.450000X-0.350000X-0.450000X0.350000X-0.450000X0*%
%ADD20R,2.150000X0.950000*%
%ADD21R,2.150000X3.250000*%
%ADD22RoundRect,0.250000X0.450000X-0.350000X0.450000X0.350000X-0.450000X0.350000X-0.450000X-0.350000X0*%
%ADD23R,1.400000X1.600000*%
%ADD24RoundRect,0.250000X-0.475000X0.337500X-0.475000X-0.337500X0.475000X-0.337500X0.475000X0.337500X0*%
%ADD25RoundRect,0.250000X0.445000X-0.545000X0.445000X0.545000X-0.445000X0.545000X-0.445000X-0.545000X0*%
%ADD26RoundRect,0.243750X0.243750X0.456250X-0.243750X0.456250X-0.243750X-0.456250X0.243750X-0.456250X0*%
%ADD27RoundRect,0.150000X-0.512500X-0.150000X0.512500X-0.150000X0.512500X0.150000X-0.512500X0.150000X0*%
%ADD28R,1.150000X0.600000*%
%ADD29R,1.150000X0.300000*%
%ADD30RoundRect,0.250000X0.337500X0.475000X-0.337500X0.475000X-0.337500X-0.475000X0.337500X-0.475000X0*%
%ADD31R,0.900000X0.900000*%
%ADD32R,1.500000X0.900000*%
%ADD33R,0.900000X1.500000*%
%ADD34RoundRect,0.250000X0.475000X-0.337500X0.475000X0.337500X-0.475000X0.337500X-0.475000X-0.337500X0*%
G04 APERTURE END LIST*
D10*
%TO.C,LED2*%
X177907500Y-132700000D03*
X176032500Y-132700000D03*
%TD*%
D11*
%TO.C,R9*%
X177950000Y-136800000D03*
X175950000Y-136800000D03*
%TD*%
D12*
%TO.C,U6*%
X177900000Y-125350000D03*
X176000000Y-125350000D03*
X176950000Y-127550000D03*
%TD*%
D13*
%TO.C,U9*%
X183625000Y-114420000D03*
X184275000Y-114420000D03*
X184925000Y-114420000D03*
X182975000Y-114420000D03*
X183625000Y-112480000D03*
X184275000Y-112480000D03*
X184925000Y-112480000D03*
X182975000Y-112480000D03*
%TD*%
D14*
%TO.C,R13*%
X187675000Y-112537500D03*
X187675000Y-114537500D03*
%TD*%
%TO.C,R12*%
X180225000Y-112537500D03*
X180225000Y-114537500D03*
%TD*%
D15*
%TO.C,C8*%
X182787500Y-110170000D03*
X184862500Y-110170000D03*
%TD*%
D16*
%TO.C,VR1*%
X186500000Y-137050000D03*
X188800000Y-137050000D03*
D17*
X187650000Y-133050000D03*
%TD*%
D18*
%TO.C,S3*%
X168000000Y-134800000D03*
X160800000Y-134800000D03*
X168000000Y-137800000D03*
X160800000Y-137800000D03*
%TD*%
D19*
%TO.C,R6*%
X165400000Y-131200000D03*
X163400000Y-131200000D03*
%TD*%
D20*
%TO.C,U1*%
X174900000Y-92700000D03*
X174900000Y-95000000D03*
X174900000Y-97300000D03*
D21*
X180700000Y-95000000D03*
%TD*%
D22*
%TO.C,R4*%
X95400000Y-123250000D03*
X95400000Y-121250000D03*
%TD*%
D23*
%TO.C,S1*%
X92412500Y-137600000D03*
X92412500Y-130400000D03*
X89412500Y-137600000D03*
X89412500Y-130400000D03*
%TD*%
D24*
%TO.C,C1*%
X170300000Y-90962500D03*
X170300000Y-93037500D03*
%TD*%
D25*
%TO.C,C3*%
X160750000Y-67890000D03*
X160750000Y-65010000D03*
%TD*%
%TO.C,C2*%
X170300000Y-98840000D03*
X170300000Y-95960000D03*
%TD*%
D11*
%TO.C,R1*%
X92750000Y-69450000D03*
X94750000Y-69450000D03*
%TD*%
D26*
%TO.C,LED1*%
X92137500Y-64900000D03*
X90262500Y-64900000D03*
%TD*%
D23*
%TO.C,S2*%
X92612500Y-123050000D03*
X92612500Y-115850000D03*
X89612500Y-123050000D03*
X89612500Y-115850000D03*
%TD*%
D27*
%TO.C,U3*%
X160012500Y-81300000D03*
X160012500Y-82250000D03*
X160012500Y-83200000D03*
X162287500Y-83200000D03*
X162287500Y-82250000D03*
X162287500Y-81300000D03*
%TD*%
D28*
%TO.C,J1*%
X94042500Y-73672500D03*
X94042500Y-74472500D03*
D29*
X94042500Y-75622500D03*
X94042500Y-76622500D03*
X94042500Y-77122500D03*
X94042500Y-78122500D03*
D28*
X94042500Y-80072500D03*
X94042500Y-79272500D03*
D29*
X94042500Y-78622500D03*
X94042500Y-77622500D03*
X94042500Y-76122500D03*
X94042500Y-75122500D03*
%TD*%
D30*
%TO.C,C5*%
X161837500Y-85950000D03*
X159762500Y-85950000D03*
%TD*%
D24*
%TO.C,C7*%
X95350000Y-116162500D03*
X95350000Y-118237500D03*
%TD*%
D19*
%TO.C,R3*%
X90450000Y-69450000D03*
X88450000Y-69450000D03*
%TD*%
D24*
%TO.C,C6*%
X95062500Y-132900000D03*
X95062500Y-134975000D03*
%TD*%
D19*
%TO.C,R2*%
X91987500Y-84522500D03*
X89987500Y-84522500D03*
%TD*%
D31*
%TO.C,U2*%
X175300000Y-70650000D03*
X175300000Y-72050000D03*
X175300000Y-73450000D03*
X176700000Y-70650000D03*
X176700000Y-72050000D03*
X176700000Y-73450000D03*
X178100000Y-70650000D03*
X178100000Y-72050000D03*
X178100000Y-73450000D03*
D32*
X169450000Y-64330000D03*
X169450000Y-65600000D03*
X169450000Y-66870000D03*
X169450000Y-68140000D03*
X169450000Y-69410000D03*
X169450000Y-70680000D03*
X169450000Y-71950000D03*
X169450000Y-73220000D03*
X169450000Y-74490000D03*
X169450000Y-75760000D03*
X169450000Y-77030000D03*
X169450000Y-78300000D03*
X169450000Y-79570000D03*
X169450000Y-80840000D03*
D33*
X171215000Y-82090000D03*
X172485000Y-82090000D03*
X173755000Y-82090000D03*
X175025000Y-82090000D03*
X176295000Y-82090000D03*
X177565000Y-82090000D03*
X178835000Y-82090000D03*
X180105000Y-82090000D03*
X181375000Y-82090000D03*
X182645000Y-82090000D03*
X183915000Y-82090000D03*
X185185000Y-82090000D03*
D32*
X186950000Y-80840000D03*
X186950000Y-79570000D03*
X186950000Y-78300000D03*
X186950000Y-77030000D03*
X186950000Y-75760000D03*
X186950000Y-74490000D03*
X186950000Y-73220000D03*
X186950000Y-71950000D03*
X186950000Y-70680000D03*
X186950000Y-69410000D03*
X186950000Y-68140000D03*
X186950000Y-66870000D03*
X186950000Y-65600000D03*
X186950000Y-64330000D03*
%TD*%
D34*
%TO.C,C4*%
X157450000Y-66837500D03*
X157450000Y-64762500D03*
%TD*%
M02*
