%TF.GenerationSoftware,KiCad,Pcbnew,9.0.1*%
%TF.CreationDate,2025-06-20T23:10:50-05:00*%
%TF.ProjectId,LVGL_Training_Board,4c56474c-5f54-4726-9169-6e696e675f42,rev?*%
%TF.SameCoordinates,Original*%
%TF.FileFunction,Drillmap*%
%TF.FilePolarity,Positive*%
%FSLAX45Y45*%
G04 Gerber Fmt 4.5, Leading zero omitted, Abs format (unit mm)*
G04 Created by KiCad (PCBNEW 9.0.1) date 2025-06-20 23:10:50*
%MOMM*%
%LPD*%
G01*
G04 APERTURE LIST*
%ADD10C,0.050000*%
%ADD11C,0.200000*%
%ADD12C,0.100000*%
G04 APERTURE END LIST*
D10*
X8895000Y-5315000D02*
X15540000Y-5315000D01*
X19930000Y-6515000D02*
X19930000Y-14565000D01*
X15940000Y-6315000D02*
G75*
G02*
X15740000Y-6115000I0J200000D01*
G01*
X19930000Y-14565000D02*
G75*
G02*
X19730000Y-14765000I-200000J0D01*
G01*
X19730000Y-14765000D02*
X9765000Y-14765000D01*
X19730000Y-6315000D02*
G75*
G02*
X19930000Y-6515000I0J-200000D01*
G01*
X15540000Y-5315000D02*
G75*
G02*
X15740000Y-5515000I0J-200000D01*
G01*
X8895000Y-14765000D02*
G75*
G02*
X8645000Y-14515000I0J250000D01*
G01*
X8645000Y-14515000D02*
X8645000Y-5565000D01*
X8645000Y-5565000D02*
G75*
G02*
X8895000Y-5315000I250000J0D01*
G01*
X15740000Y-5515000D02*
X15740000Y-6115000D01*
X15940000Y-6315000D02*
X19730000Y-6315000D01*
X9765000Y-14765000D02*
X8895000Y-14765000D01*
D11*
D12*
X9264250Y-7365750D02*
X9329250Y-7430750D01*
X9329250Y-7365750D02*
X9264250Y-7430750D01*
X9264250Y-7943750D02*
X9329250Y-8008750D01*
X9329250Y-7943750D02*
X9264250Y-8008750D01*
D11*
X8903277Y-15078984D02*
X8903277Y-14878984D01*
X8903277Y-14878984D02*
X8950896Y-14878984D01*
X8950896Y-14878984D02*
X8979467Y-14888508D01*
X8979467Y-14888508D02*
X8998515Y-14907555D01*
X8998515Y-14907555D02*
X9008039Y-14926603D01*
X9008039Y-14926603D02*
X9017563Y-14964698D01*
X9017563Y-14964698D02*
X9017563Y-14993269D01*
X9017563Y-14993269D02*
X9008039Y-15031365D01*
X9008039Y-15031365D02*
X8998515Y-15050412D01*
X8998515Y-15050412D02*
X8979467Y-15069460D01*
X8979467Y-15069460D02*
X8950896Y-15078984D01*
X8950896Y-15078984D02*
X8903277Y-15078984D01*
X9103277Y-15078984D02*
X9103277Y-14945650D01*
X9103277Y-14983746D02*
X9112801Y-14964698D01*
X9112801Y-14964698D02*
X9122324Y-14955174D01*
X9122324Y-14955174D02*
X9141372Y-14945650D01*
X9141372Y-14945650D02*
X9160420Y-14945650D01*
X9227086Y-15078984D02*
X9227086Y-14945650D01*
X9227086Y-14878984D02*
X9217563Y-14888508D01*
X9217563Y-14888508D02*
X9227086Y-14898031D01*
X9227086Y-14898031D02*
X9236610Y-14888508D01*
X9236610Y-14888508D02*
X9227086Y-14878984D01*
X9227086Y-14878984D02*
X9227086Y-14898031D01*
X9350896Y-15078984D02*
X9331848Y-15069460D01*
X9331848Y-15069460D02*
X9322324Y-15050412D01*
X9322324Y-15050412D02*
X9322324Y-14878984D01*
X9455658Y-15078984D02*
X9436610Y-15069460D01*
X9436610Y-15069460D02*
X9427086Y-15050412D01*
X9427086Y-15050412D02*
X9427086Y-14878984D01*
X9684229Y-15078984D02*
X9684229Y-14878984D01*
X9684229Y-14878984D02*
X9750896Y-15021841D01*
X9750896Y-15021841D02*
X9817563Y-14878984D01*
X9817563Y-14878984D02*
X9817563Y-15078984D01*
X9998515Y-15078984D02*
X9998515Y-14974222D01*
X9998515Y-14974222D02*
X9988991Y-14955174D01*
X9988991Y-14955174D02*
X9969944Y-14945650D01*
X9969944Y-14945650D02*
X9931848Y-14945650D01*
X9931848Y-14945650D02*
X9912801Y-14955174D01*
X9998515Y-15069460D02*
X9979467Y-15078984D01*
X9979467Y-15078984D02*
X9931848Y-15078984D01*
X9931848Y-15078984D02*
X9912801Y-15069460D01*
X9912801Y-15069460D02*
X9903277Y-15050412D01*
X9903277Y-15050412D02*
X9903277Y-15031365D01*
X9903277Y-15031365D02*
X9912801Y-15012317D01*
X9912801Y-15012317D02*
X9931848Y-15002793D01*
X9931848Y-15002793D02*
X9979467Y-15002793D01*
X9979467Y-15002793D02*
X9998515Y-14993269D01*
X10093753Y-14945650D02*
X10093753Y-15145650D01*
X10093753Y-14955174D02*
X10112801Y-14945650D01*
X10112801Y-14945650D02*
X10150896Y-14945650D01*
X10150896Y-14945650D02*
X10169944Y-14955174D01*
X10169944Y-14955174D02*
X10179467Y-14964698D01*
X10179467Y-14964698D02*
X10188991Y-14983746D01*
X10188991Y-14983746D02*
X10188991Y-15040888D01*
X10188991Y-15040888D02*
X10179467Y-15059936D01*
X10179467Y-15059936D02*
X10169944Y-15069460D01*
X10169944Y-15069460D02*
X10150896Y-15078984D01*
X10150896Y-15078984D02*
X10112801Y-15078984D01*
X10112801Y-15078984D02*
X10093753Y-15069460D01*
X10274705Y-15059936D02*
X10284229Y-15069460D01*
X10284229Y-15069460D02*
X10274705Y-15078984D01*
X10274705Y-15078984D02*
X10265182Y-15069460D01*
X10265182Y-15069460D02*
X10274705Y-15059936D01*
X10274705Y-15059936D02*
X10274705Y-15078984D01*
X10274705Y-14955174D02*
X10284229Y-14964698D01*
X10284229Y-14964698D02*
X10274705Y-14974222D01*
X10274705Y-14974222D02*
X10265182Y-14964698D01*
X10265182Y-14964698D02*
X10274705Y-14955174D01*
X10274705Y-14955174D02*
X10274705Y-14974222D01*
D12*
X8577500Y-15375000D02*
X8642500Y-15440000D01*
X8642500Y-15375000D02*
X8577500Y-15440000D01*
D11*
X8941372Y-15298984D02*
X8960420Y-15298984D01*
X8960420Y-15298984D02*
X8979467Y-15308508D01*
X8979467Y-15308508D02*
X8988991Y-15318031D01*
X8988991Y-15318031D02*
X8998515Y-15337079D01*
X8998515Y-15337079D02*
X9008039Y-15375174D01*
X9008039Y-15375174D02*
X9008039Y-15422793D01*
X9008039Y-15422793D02*
X8998515Y-15460888D01*
X8998515Y-15460888D02*
X8988991Y-15479936D01*
X8988991Y-15479936D02*
X8979467Y-15489460D01*
X8979467Y-15489460D02*
X8960420Y-15498984D01*
X8960420Y-15498984D02*
X8941372Y-15498984D01*
X8941372Y-15498984D02*
X8922324Y-15489460D01*
X8922324Y-15489460D02*
X8912801Y-15479936D01*
X8912801Y-15479936D02*
X8903277Y-15460888D01*
X8903277Y-15460888D02*
X8893753Y-15422793D01*
X8893753Y-15422793D02*
X8893753Y-15375174D01*
X8893753Y-15375174D02*
X8903277Y-15337079D01*
X8903277Y-15337079D02*
X8912801Y-15318031D01*
X8912801Y-15318031D02*
X8922324Y-15308508D01*
X8922324Y-15308508D02*
X8941372Y-15298984D01*
X9093753Y-15479936D02*
X9103277Y-15489460D01*
X9103277Y-15489460D02*
X9093753Y-15498984D01*
X9093753Y-15498984D02*
X9084229Y-15489460D01*
X9084229Y-15489460D02*
X9093753Y-15479936D01*
X9093753Y-15479936D02*
X9093753Y-15498984D01*
X9274705Y-15298984D02*
X9236610Y-15298984D01*
X9236610Y-15298984D02*
X9217563Y-15308508D01*
X9217563Y-15308508D02*
X9208039Y-15318031D01*
X9208039Y-15318031D02*
X9188991Y-15346603D01*
X9188991Y-15346603D02*
X9179467Y-15384698D01*
X9179467Y-15384698D02*
X9179467Y-15460888D01*
X9179467Y-15460888D02*
X9188991Y-15479936D01*
X9188991Y-15479936D02*
X9198515Y-15489460D01*
X9198515Y-15489460D02*
X9217563Y-15498984D01*
X9217563Y-15498984D02*
X9255658Y-15498984D01*
X9255658Y-15498984D02*
X9274705Y-15489460D01*
X9274705Y-15489460D02*
X9284229Y-15479936D01*
X9284229Y-15479936D02*
X9293753Y-15460888D01*
X9293753Y-15460888D02*
X9293753Y-15413269D01*
X9293753Y-15413269D02*
X9284229Y-15394222D01*
X9284229Y-15394222D02*
X9274705Y-15384698D01*
X9274705Y-15384698D02*
X9255658Y-15375174D01*
X9255658Y-15375174D02*
X9217563Y-15375174D01*
X9217563Y-15375174D02*
X9198515Y-15384698D01*
X9198515Y-15384698D02*
X9188991Y-15394222D01*
X9188991Y-15394222D02*
X9179467Y-15413269D01*
X9474705Y-15298984D02*
X9379467Y-15298984D01*
X9379467Y-15298984D02*
X9369944Y-15394222D01*
X9369944Y-15394222D02*
X9379467Y-15384698D01*
X9379467Y-15384698D02*
X9398515Y-15375174D01*
X9398515Y-15375174D02*
X9446134Y-15375174D01*
X9446134Y-15375174D02*
X9465182Y-15384698D01*
X9465182Y-15384698D02*
X9474705Y-15394222D01*
X9474705Y-15394222D02*
X9484229Y-15413269D01*
X9484229Y-15413269D02*
X9484229Y-15460888D01*
X9484229Y-15460888D02*
X9474705Y-15479936D01*
X9474705Y-15479936D02*
X9465182Y-15489460D01*
X9465182Y-15489460D02*
X9446134Y-15498984D01*
X9446134Y-15498984D02*
X9398515Y-15498984D01*
X9398515Y-15498984D02*
X9379467Y-15489460D01*
X9379467Y-15489460D02*
X9369944Y-15479936D01*
X9608039Y-15298984D02*
X9627086Y-15298984D01*
X9627086Y-15298984D02*
X9646134Y-15308508D01*
X9646134Y-15308508D02*
X9655658Y-15318031D01*
X9655658Y-15318031D02*
X9665182Y-15337079D01*
X9665182Y-15337079D02*
X9674705Y-15375174D01*
X9674705Y-15375174D02*
X9674705Y-15422793D01*
X9674705Y-15422793D02*
X9665182Y-15460888D01*
X9665182Y-15460888D02*
X9655658Y-15479936D01*
X9655658Y-15479936D02*
X9646134Y-15489460D01*
X9646134Y-15489460D02*
X9627086Y-15498984D01*
X9627086Y-15498984D02*
X9608039Y-15498984D01*
X9608039Y-15498984D02*
X9588991Y-15489460D01*
X9588991Y-15489460D02*
X9579467Y-15479936D01*
X9579467Y-15479936D02*
X9569944Y-15460888D01*
X9569944Y-15460888D02*
X9560420Y-15422793D01*
X9560420Y-15422793D02*
X9560420Y-15375174D01*
X9560420Y-15375174D02*
X9569944Y-15337079D01*
X9569944Y-15337079D02*
X9579467Y-15318031D01*
X9579467Y-15318031D02*
X9588991Y-15308508D01*
X9588991Y-15308508D02*
X9608039Y-15298984D01*
X9760420Y-15498984D02*
X9760420Y-15365650D01*
X9760420Y-15384698D02*
X9769944Y-15375174D01*
X9769944Y-15375174D02*
X9788991Y-15365650D01*
X9788991Y-15365650D02*
X9817563Y-15365650D01*
X9817563Y-15365650D02*
X9836610Y-15375174D01*
X9836610Y-15375174D02*
X9846134Y-15394222D01*
X9846134Y-15394222D02*
X9846134Y-15498984D01*
X9846134Y-15394222D02*
X9855658Y-15375174D01*
X9855658Y-15375174D02*
X9874705Y-15365650D01*
X9874705Y-15365650D02*
X9903277Y-15365650D01*
X9903277Y-15365650D02*
X9922325Y-15375174D01*
X9922325Y-15375174D02*
X9931848Y-15394222D01*
X9931848Y-15394222D02*
X9931848Y-15498984D01*
X10027086Y-15498984D02*
X10027086Y-15365650D01*
X10027086Y-15384698D02*
X10036610Y-15375174D01*
X10036610Y-15375174D02*
X10055658Y-15365650D01*
X10055658Y-15365650D02*
X10084229Y-15365650D01*
X10084229Y-15365650D02*
X10103277Y-15375174D01*
X10103277Y-15375174D02*
X10112801Y-15394222D01*
X10112801Y-15394222D02*
X10112801Y-15498984D01*
X10112801Y-15394222D02*
X10122325Y-15375174D01*
X10122325Y-15375174D02*
X10141372Y-15365650D01*
X10141372Y-15365650D02*
X10169944Y-15365650D01*
X10169944Y-15365650D02*
X10188991Y-15375174D01*
X10188991Y-15375174D02*
X10198515Y-15394222D01*
X10198515Y-15394222D02*
X10198515Y-15498984D01*
X10588991Y-15289460D02*
X10417563Y-15546603D01*
X10846134Y-15298984D02*
X10865182Y-15298984D01*
X10865182Y-15298984D02*
X10884229Y-15308508D01*
X10884229Y-15308508D02*
X10893753Y-15318031D01*
X10893753Y-15318031D02*
X10903277Y-15337079D01*
X10903277Y-15337079D02*
X10912801Y-15375174D01*
X10912801Y-15375174D02*
X10912801Y-15422793D01*
X10912801Y-15422793D02*
X10903277Y-15460888D01*
X10903277Y-15460888D02*
X10893753Y-15479936D01*
X10893753Y-15479936D02*
X10884229Y-15489460D01*
X10884229Y-15489460D02*
X10865182Y-15498984D01*
X10865182Y-15498984D02*
X10846134Y-15498984D01*
X10846134Y-15498984D02*
X10827087Y-15489460D01*
X10827087Y-15489460D02*
X10817563Y-15479936D01*
X10817563Y-15479936D02*
X10808039Y-15460888D01*
X10808039Y-15460888D02*
X10798515Y-15422793D01*
X10798515Y-15422793D02*
X10798515Y-15375174D01*
X10798515Y-15375174D02*
X10808039Y-15337079D01*
X10808039Y-15337079D02*
X10817563Y-15318031D01*
X10817563Y-15318031D02*
X10827087Y-15308508D01*
X10827087Y-15308508D02*
X10846134Y-15298984D01*
X10998515Y-15479936D02*
X11008039Y-15489460D01*
X11008039Y-15489460D02*
X10998515Y-15498984D01*
X10998515Y-15498984D02*
X10988991Y-15489460D01*
X10988991Y-15489460D02*
X10998515Y-15479936D01*
X10998515Y-15479936D02*
X10998515Y-15498984D01*
X11131848Y-15298984D02*
X11150896Y-15298984D01*
X11150896Y-15298984D02*
X11169944Y-15308508D01*
X11169944Y-15308508D02*
X11179468Y-15318031D01*
X11179468Y-15318031D02*
X11188991Y-15337079D01*
X11188991Y-15337079D02*
X11198515Y-15375174D01*
X11198515Y-15375174D02*
X11198515Y-15422793D01*
X11198515Y-15422793D02*
X11188991Y-15460888D01*
X11188991Y-15460888D02*
X11179468Y-15479936D01*
X11179468Y-15479936D02*
X11169944Y-15489460D01*
X11169944Y-15489460D02*
X11150896Y-15498984D01*
X11150896Y-15498984D02*
X11131848Y-15498984D01*
X11131848Y-15498984D02*
X11112801Y-15489460D01*
X11112801Y-15489460D02*
X11103277Y-15479936D01*
X11103277Y-15479936D02*
X11093753Y-15460888D01*
X11093753Y-15460888D02*
X11084229Y-15422793D01*
X11084229Y-15422793D02*
X11084229Y-15375174D01*
X11084229Y-15375174D02*
X11093753Y-15337079D01*
X11093753Y-15337079D02*
X11103277Y-15318031D01*
X11103277Y-15318031D02*
X11112801Y-15308508D01*
X11112801Y-15308508D02*
X11131848Y-15298984D01*
X11274706Y-15318031D02*
X11284229Y-15308508D01*
X11284229Y-15308508D02*
X11303277Y-15298984D01*
X11303277Y-15298984D02*
X11350896Y-15298984D01*
X11350896Y-15298984D02*
X11369944Y-15308508D01*
X11369944Y-15308508D02*
X11379467Y-15318031D01*
X11379467Y-15318031D02*
X11388991Y-15337079D01*
X11388991Y-15337079D02*
X11388991Y-15356127D01*
X11388991Y-15356127D02*
X11379467Y-15384698D01*
X11379467Y-15384698D02*
X11265182Y-15498984D01*
X11265182Y-15498984D02*
X11388991Y-15498984D01*
X11569944Y-15298984D02*
X11474706Y-15298984D01*
X11474706Y-15298984D02*
X11465182Y-15394222D01*
X11465182Y-15394222D02*
X11474706Y-15384698D01*
X11474706Y-15384698D02*
X11493753Y-15375174D01*
X11493753Y-15375174D02*
X11541372Y-15375174D01*
X11541372Y-15375174D02*
X11560420Y-15384698D01*
X11560420Y-15384698D02*
X11569944Y-15394222D01*
X11569944Y-15394222D02*
X11579467Y-15413269D01*
X11579467Y-15413269D02*
X11579467Y-15460888D01*
X11579467Y-15460888D02*
X11569944Y-15479936D01*
X11569944Y-15479936D02*
X11560420Y-15489460D01*
X11560420Y-15489460D02*
X11541372Y-15498984D01*
X11541372Y-15498984D02*
X11493753Y-15498984D01*
X11493753Y-15498984D02*
X11474706Y-15489460D01*
X11474706Y-15489460D02*
X11465182Y-15479936D01*
X11750896Y-15298984D02*
X11712801Y-15298984D01*
X11712801Y-15298984D02*
X11693753Y-15308508D01*
X11693753Y-15308508D02*
X11684229Y-15318031D01*
X11684229Y-15318031D02*
X11665182Y-15346603D01*
X11665182Y-15346603D02*
X11655658Y-15384698D01*
X11655658Y-15384698D02*
X11655658Y-15460888D01*
X11655658Y-15460888D02*
X11665182Y-15479936D01*
X11665182Y-15479936D02*
X11674706Y-15489460D01*
X11674706Y-15489460D02*
X11693753Y-15498984D01*
X11693753Y-15498984D02*
X11731848Y-15498984D01*
X11731848Y-15498984D02*
X11750896Y-15489460D01*
X11750896Y-15489460D02*
X11760420Y-15479936D01*
X11760420Y-15479936D02*
X11769944Y-15460888D01*
X11769944Y-15460888D02*
X11769944Y-15413269D01*
X11769944Y-15413269D02*
X11760420Y-15394222D01*
X11760420Y-15394222D02*
X11750896Y-15384698D01*
X11750896Y-15384698D02*
X11731848Y-15375174D01*
X11731848Y-15375174D02*
X11693753Y-15375174D01*
X11693753Y-15375174D02*
X11674706Y-15384698D01*
X11674706Y-15384698D02*
X11665182Y-15394222D01*
X11665182Y-15394222D02*
X11655658Y-15413269D01*
X11846134Y-15298984D02*
X11846134Y-15337079D01*
X11922325Y-15298984D02*
X11922325Y-15337079D01*
X12217563Y-15575174D02*
X12208039Y-15565650D01*
X12208039Y-15565650D02*
X12188991Y-15537079D01*
X12188991Y-15537079D02*
X12179468Y-15518031D01*
X12179468Y-15518031D02*
X12169944Y-15489460D01*
X12169944Y-15489460D02*
X12160420Y-15441841D01*
X12160420Y-15441841D02*
X12160420Y-15403746D01*
X12160420Y-15403746D02*
X12169944Y-15356127D01*
X12169944Y-15356127D02*
X12179468Y-15327555D01*
X12179468Y-15327555D02*
X12188991Y-15308508D01*
X12188991Y-15308508D02*
X12208039Y-15279936D01*
X12208039Y-15279936D02*
X12217563Y-15270412D01*
X12284229Y-15318031D02*
X12293753Y-15308508D01*
X12293753Y-15308508D02*
X12312801Y-15298984D01*
X12312801Y-15298984D02*
X12360420Y-15298984D01*
X12360420Y-15298984D02*
X12379468Y-15308508D01*
X12379468Y-15308508D02*
X12388991Y-15318031D01*
X12388991Y-15318031D02*
X12398515Y-15337079D01*
X12398515Y-15337079D02*
X12398515Y-15356127D01*
X12398515Y-15356127D02*
X12388991Y-15384698D01*
X12388991Y-15384698D02*
X12274706Y-15498984D01*
X12274706Y-15498984D02*
X12398515Y-15498984D01*
X12636610Y-15498984D02*
X12636610Y-15298984D01*
X12722325Y-15498984D02*
X12722325Y-15394222D01*
X12722325Y-15394222D02*
X12712801Y-15375174D01*
X12712801Y-15375174D02*
X12693753Y-15365650D01*
X12693753Y-15365650D02*
X12665182Y-15365650D01*
X12665182Y-15365650D02*
X12646134Y-15375174D01*
X12646134Y-15375174D02*
X12636610Y-15384698D01*
X12846134Y-15498984D02*
X12827087Y-15489460D01*
X12827087Y-15489460D02*
X12817563Y-15479936D01*
X12817563Y-15479936D02*
X12808039Y-15460888D01*
X12808039Y-15460888D02*
X12808039Y-15403746D01*
X12808039Y-15403746D02*
X12817563Y-15384698D01*
X12817563Y-15384698D02*
X12827087Y-15375174D01*
X12827087Y-15375174D02*
X12846134Y-15365650D01*
X12846134Y-15365650D02*
X12874706Y-15365650D01*
X12874706Y-15365650D02*
X12893753Y-15375174D01*
X12893753Y-15375174D02*
X12903277Y-15384698D01*
X12903277Y-15384698D02*
X12912801Y-15403746D01*
X12912801Y-15403746D02*
X12912801Y-15460888D01*
X12912801Y-15460888D02*
X12903277Y-15479936D01*
X12903277Y-15479936D02*
X12893753Y-15489460D01*
X12893753Y-15489460D02*
X12874706Y-15498984D01*
X12874706Y-15498984D02*
X12846134Y-15498984D01*
X13027087Y-15498984D02*
X13008039Y-15489460D01*
X13008039Y-15489460D02*
X12998515Y-15470412D01*
X12998515Y-15470412D02*
X12998515Y-15298984D01*
X13179468Y-15489460D02*
X13160420Y-15498984D01*
X13160420Y-15498984D02*
X13122325Y-15498984D01*
X13122325Y-15498984D02*
X13103277Y-15489460D01*
X13103277Y-15489460D02*
X13093753Y-15470412D01*
X13093753Y-15470412D02*
X13093753Y-15394222D01*
X13093753Y-15394222D02*
X13103277Y-15375174D01*
X13103277Y-15375174D02*
X13122325Y-15365650D01*
X13122325Y-15365650D02*
X13160420Y-15365650D01*
X13160420Y-15365650D02*
X13179468Y-15375174D01*
X13179468Y-15375174D02*
X13188991Y-15394222D01*
X13188991Y-15394222D02*
X13188991Y-15413269D01*
X13188991Y-15413269D02*
X13093753Y-15432317D01*
X13265182Y-15489460D02*
X13284230Y-15498984D01*
X13284230Y-15498984D02*
X13322325Y-15498984D01*
X13322325Y-15498984D02*
X13341372Y-15489460D01*
X13341372Y-15489460D02*
X13350896Y-15470412D01*
X13350896Y-15470412D02*
X13350896Y-15460888D01*
X13350896Y-15460888D02*
X13341372Y-15441841D01*
X13341372Y-15441841D02*
X13322325Y-15432317D01*
X13322325Y-15432317D02*
X13293753Y-15432317D01*
X13293753Y-15432317D02*
X13274706Y-15422793D01*
X13274706Y-15422793D02*
X13265182Y-15403746D01*
X13265182Y-15403746D02*
X13265182Y-15394222D01*
X13265182Y-15394222D02*
X13274706Y-15375174D01*
X13274706Y-15375174D02*
X13293753Y-15365650D01*
X13293753Y-15365650D02*
X13322325Y-15365650D01*
X13322325Y-15365650D02*
X13341372Y-15375174D01*
X13417563Y-15575174D02*
X13427087Y-15565650D01*
X13427087Y-15565650D02*
X13446134Y-15537079D01*
X13446134Y-15537079D02*
X13455658Y-15518031D01*
X13455658Y-15518031D02*
X13465182Y-15489460D01*
X13465182Y-15489460D02*
X13474706Y-15441841D01*
X13474706Y-15441841D02*
X13474706Y-15403746D01*
X13474706Y-15403746D02*
X13465182Y-15356127D01*
X13465182Y-15356127D02*
X13455658Y-15327555D01*
X13455658Y-15327555D02*
X13446134Y-15308508D01*
X13446134Y-15308508D02*
X13427087Y-15279936D01*
X13427087Y-15279936D02*
X13417563Y-15270412D01*
X13779468Y-15575174D02*
X13769944Y-15565650D01*
X13769944Y-15565650D02*
X13750896Y-15537079D01*
X13750896Y-15537079D02*
X13741372Y-15518031D01*
X13741372Y-15518031D02*
X13731849Y-15489460D01*
X13731849Y-15489460D02*
X13722325Y-15441841D01*
X13722325Y-15441841D02*
X13722325Y-15403746D01*
X13722325Y-15403746D02*
X13731849Y-15356127D01*
X13731849Y-15356127D02*
X13741372Y-15327555D01*
X13741372Y-15327555D02*
X13750896Y-15308508D01*
X13750896Y-15308508D02*
X13769944Y-15279936D01*
X13769944Y-15279936D02*
X13779468Y-15270412D01*
X13855658Y-15365650D02*
X13855658Y-15498984D01*
X13855658Y-15384698D02*
X13865182Y-15375174D01*
X13865182Y-15375174D02*
X13884230Y-15365650D01*
X13884230Y-15365650D02*
X13912801Y-15365650D01*
X13912801Y-15365650D02*
X13931849Y-15375174D01*
X13931849Y-15375174D02*
X13941372Y-15394222D01*
X13941372Y-15394222D02*
X13941372Y-15498984D01*
X14065182Y-15498984D02*
X14046134Y-15489460D01*
X14046134Y-15489460D02*
X14036611Y-15479936D01*
X14036611Y-15479936D02*
X14027087Y-15460888D01*
X14027087Y-15460888D02*
X14027087Y-15403746D01*
X14027087Y-15403746D02*
X14036611Y-15384698D01*
X14036611Y-15384698D02*
X14046134Y-15375174D01*
X14046134Y-15375174D02*
X14065182Y-15365650D01*
X14065182Y-15365650D02*
X14093753Y-15365650D01*
X14093753Y-15365650D02*
X14112801Y-15375174D01*
X14112801Y-15375174D02*
X14122325Y-15384698D01*
X14122325Y-15384698D02*
X14131849Y-15403746D01*
X14131849Y-15403746D02*
X14131849Y-15460888D01*
X14131849Y-15460888D02*
X14122325Y-15479936D01*
X14122325Y-15479936D02*
X14112801Y-15489460D01*
X14112801Y-15489460D02*
X14093753Y-15498984D01*
X14093753Y-15498984D02*
X14065182Y-15498984D01*
X14188992Y-15365650D02*
X14265182Y-15365650D01*
X14217563Y-15298984D02*
X14217563Y-15470412D01*
X14217563Y-15470412D02*
X14227087Y-15489460D01*
X14227087Y-15489460D02*
X14246134Y-15498984D01*
X14246134Y-15498984D02*
X14265182Y-15498984D01*
X14484230Y-15365650D02*
X14484230Y-15565650D01*
X14484230Y-15375174D02*
X14503277Y-15365650D01*
X14503277Y-15365650D02*
X14541373Y-15365650D01*
X14541373Y-15365650D02*
X14560420Y-15375174D01*
X14560420Y-15375174D02*
X14569944Y-15384698D01*
X14569944Y-15384698D02*
X14579468Y-15403746D01*
X14579468Y-15403746D02*
X14579468Y-15460888D01*
X14579468Y-15460888D02*
X14569944Y-15479936D01*
X14569944Y-15479936D02*
X14560420Y-15489460D01*
X14560420Y-15489460D02*
X14541373Y-15498984D01*
X14541373Y-15498984D02*
X14503277Y-15498984D01*
X14503277Y-15498984D02*
X14484230Y-15489460D01*
X14693753Y-15498984D02*
X14674706Y-15489460D01*
X14674706Y-15489460D02*
X14665182Y-15470412D01*
X14665182Y-15470412D02*
X14665182Y-15298984D01*
X14855658Y-15498984D02*
X14855658Y-15394222D01*
X14855658Y-15394222D02*
X14846134Y-15375174D01*
X14846134Y-15375174D02*
X14827087Y-15365650D01*
X14827087Y-15365650D02*
X14788992Y-15365650D01*
X14788992Y-15365650D02*
X14769944Y-15375174D01*
X14855658Y-15489460D02*
X14836611Y-15498984D01*
X14836611Y-15498984D02*
X14788992Y-15498984D01*
X14788992Y-15498984D02*
X14769944Y-15489460D01*
X14769944Y-15489460D02*
X14760420Y-15470412D01*
X14760420Y-15470412D02*
X14760420Y-15451365D01*
X14760420Y-15451365D02*
X14769944Y-15432317D01*
X14769944Y-15432317D02*
X14788992Y-15422793D01*
X14788992Y-15422793D02*
X14836611Y-15422793D01*
X14836611Y-15422793D02*
X14855658Y-15413269D01*
X14922325Y-15365650D02*
X14998515Y-15365650D01*
X14950896Y-15298984D02*
X14950896Y-15470412D01*
X14950896Y-15470412D02*
X14960420Y-15489460D01*
X14960420Y-15489460D02*
X14979468Y-15498984D01*
X14979468Y-15498984D02*
X14998515Y-15498984D01*
X15141373Y-15489460D02*
X15122325Y-15498984D01*
X15122325Y-15498984D02*
X15084230Y-15498984D01*
X15084230Y-15498984D02*
X15065182Y-15489460D01*
X15065182Y-15489460D02*
X15055658Y-15470412D01*
X15055658Y-15470412D02*
X15055658Y-15394222D01*
X15055658Y-15394222D02*
X15065182Y-15375174D01*
X15065182Y-15375174D02*
X15084230Y-15365650D01*
X15084230Y-15365650D02*
X15122325Y-15365650D01*
X15122325Y-15365650D02*
X15141373Y-15375174D01*
X15141373Y-15375174D02*
X15150896Y-15394222D01*
X15150896Y-15394222D02*
X15150896Y-15413269D01*
X15150896Y-15413269D02*
X15055658Y-15432317D01*
X15322325Y-15498984D02*
X15322325Y-15298984D01*
X15322325Y-15489460D02*
X15303277Y-15498984D01*
X15303277Y-15498984D02*
X15265182Y-15498984D01*
X15265182Y-15498984D02*
X15246134Y-15489460D01*
X15246134Y-15489460D02*
X15236611Y-15479936D01*
X15236611Y-15479936D02*
X15227087Y-15460888D01*
X15227087Y-15460888D02*
X15227087Y-15403746D01*
X15227087Y-15403746D02*
X15236611Y-15384698D01*
X15236611Y-15384698D02*
X15246134Y-15375174D01*
X15246134Y-15375174D02*
X15265182Y-15365650D01*
X15265182Y-15365650D02*
X15303277Y-15365650D01*
X15303277Y-15365650D02*
X15322325Y-15375174D01*
X15398515Y-15575174D02*
X15408039Y-15565650D01*
X15408039Y-15565650D02*
X15427087Y-15537079D01*
X15427087Y-15537079D02*
X15436611Y-15518031D01*
X15436611Y-15518031D02*
X15446134Y-15489460D01*
X15446134Y-15489460D02*
X15455658Y-15441841D01*
X15455658Y-15441841D02*
X15455658Y-15403746D01*
X15455658Y-15403746D02*
X15446134Y-15356127D01*
X15446134Y-15356127D02*
X15436611Y-15327555D01*
X15436611Y-15327555D02*
X15427087Y-15308508D01*
X15427087Y-15308508D02*
X15408039Y-15279936D01*
X15408039Y-15279936D02*
X15398515Y-15270412D01*
M02*
